<?xml version="1.0" encoding="UTF-8"?>
<svg width="216px" height="53px" viewBox="0 0 216 53" version="1.1" xmlns="http://www.w3.org/2000/svg" xmlns:xlink="http://www.w3.org/1999/xlink">
    <title>Group 4</title>
    <defs>
        <radialGradient cx="25.640597%" cy="18.9139463%" fx="25.640597%" fy="18.9139463%" r="80.4171466%" gradientTransform="translate(0.256406,0.189139),rotate(45.752371),scale(1.000000,1.038238),translate(-0.256406,-0.189139)" id="radialGradient-1">
            <stop stop-color="#E2E5FF" offset="0%"></stop>
            <stop stop-color="#7174B3" offset="42.8704026%"></stop>
            <stop stop-color="#121884" offset="100%"></stop>
        </radialGradient>
    </defs>
    <g id="Page-1" stroke="none" stroke-width="1" fill="none" fill-rule="evenodd">
        <g id="Desktop" transform="translate(-29.000000, -39.000000)">
            <g id="Group-4" transform="translate(29.000000, 39.000000)">
                <g id="Group-3">
                    <circle id="Oval" fill="#6C71C4" cx="26.16" cy="26.16" r="26.16"></circle>
                    <path d="M15.88608,38.4384 C17.6832,38.4384 19.30176,38.208 20.74176,37.7472 C22.18176,37.2864 23.40288,36.64704 24.40512,35.82912 C25.40736,35.0112 26.1792,34.04352 26.72064,32.92608 C27.26208,31.80864 27.5328,30.59328 27.5328,29.28 C27.5328,27.8976 27.1296,26.75136 26.3232,25.84128 C25.5168,24.9312 24.34176,24.18816 22.79808,23.61216 L20.03328,22.57536 C19.22688,22.27584 18.65664,21.936 18.32256,21.55584 C17.98848,21.17568 17.82144,20.74368 17.82144,20.25984 C17.82144,19.84512 17.93088,19.45344 18.14976,19.0848 C18.36864,18.71616 18.65664,18.3936 19.01376,18.11712 C19.37088,17.84064 19.79136,17.62176 20.2752,17.46048 C20.75904,17.2992 21.27744,17.21856 21.8304,17.21856 C22.8672,17.21856 23.8176,17.35104 24.6816,17.616 C25.5456,17.88096 26.36928,18.31296 27.15264,18.912 C28.1390039,18.2204818 28.884354,17.7366418 29.3886903,17.46048 C29.7866232,17.242582 30.394677,16.9853323 31.2128516,16.6887309 C31.1406555,16.6260343 29.9097604,15.4699827 29.8345093,15.4095578 C28.9971924,14.7372112 27.970756,14.2054919 26.7552,13.8144 C25.4304,13.38816 24.03072,13.17504 22.55616,13.17504 C21.12768,13.17504 19.79136,13.38816 18.5472,13.8144 C17.30304,14.24064 16.2144,14.82816 15.28128,15.57696 C14.34816,16.32576 13.61664,17.21856 13.08672,18.25536 C12.5568,19.29216 12.29184,20.4096 12.29184,21.60768 C12.29184,23.01312 12.68352,24.1248 13.46688,24.94272 C14.25024,25.76064 15.3216,26.42304 16.68096,26.92992 L19.20384,27.86304 C20.07936,28.1856 20.72448,28.54848 21.1392,28.95168 C21.55392,29.35488 21.76128,29.856 21.76128,30.45504 C21.76128,31.65312 21.30624,32.61504 20.39616,33.3408 C19.48608,34.06656 18.27072,34.42944 16.75008,34.42944 C15.52896,34.42944 14.44032,34.26816 13.48416,33.9456 C12.528,33.62304 11.54304,33.16224 10.52928,32.5632 L7.97184,36.26112 C8.9856,36.90624 10.13184,37.4304 11.41056,37.8336 C12.68928,38.2368 14.18112,38.4384 15.88608,38.4384 Z" id="S" fill="#FFFFFF" fill-rule="nonzero"></path>
                    <path d="M37.71408,28.32 L38.42544,25.6056 L35.78592,25.64304 C35.49888,25.64304 35.18688,25.65552 34.84992,25.68048 C34.52544,25.69296 34.26336,25.71792 34.06368,25.75536 C34.72512,25.4808 35.31168,25.2156 35.82336,24.95976 C36.33504,24.70392 36.75936,24.41688 37.09632,24.09864 C37.43328,23.7804 37.68912,23.41848 37.86384,23.01288 C38.03856,22.60728 38.12592,22.1112 38.12592,21.52464 C38.12592,21.07536 38.03856,20.65416 37.86384,20.26104 C37.68912,19.86792 37.42704,19.52472 37.0776,19.23144 C36.72816,18.93816 36.29448,18.7104 35.77656,18.54816 C35.25864,18.38592 34.65648,18.3048 33.97008,18.3048 C32.9592,18.3048 32.07,18.46704 31.30248,18.79152 C30.53496,19.116 29.77056,19.59648 29.00928,20.23296 L31.12464,22.1424 C31.56144,21.74304 31.95144,21.44664 32.29464,21.2532 C32.63784,21.05976 33.00288,20.96304 33.38976,20.96304 C33.70176,20.96304 33.9732,21.04728 34.20408,21.21576 C34.43496,21.38424 34.5504,21.63696 34.5504,21.97392 C34.5504,22.27344 34.39128,22.5792 34.07304,22.8912 C33.7548,23.2032 33.3492,23.51208 32.85624,23.81784 C32.36328,24.1236 31.81728,24.42624 31.21824,24.72576 C30.6192,25.02528 30.03264,25.31232 29.45856,25.58688 L29.45856,28.32 L37.71408,28.32 Z M44.6352,25.8864 L44.6352,18.36096 L42.576,18.36096 L38.68224,21.28128 L39.52464,23.00352 C39.924,22.87872 40.28904,22.72272 40.61976,22.53552 C40.95048,22.34832 41.27184,22.16736 41.58384,21.99264 L41.58384,25.8864 L41.58384,28.32 L44.6352,28.32 L44.6352,25.8864 Z" id="21" fill="#FFFFFF" fill-rule="nonzero"></path>
                </g>
                <g id="Group-2" transform="translate(175.000000, 6.000000)">
                    <circle id="Oval-Copy" fill="url(#radialGradient-1)" cx="20.4" cy="20.4" r="20.4"></circle>
                    <path d="M4.76572612,23.5359375 C5.13447612,23.5359375 5.46494487,23.4632812 5.75713237,23.3179687 C6.04931987,23.1726562 6.31416362,22.95 6.55166362,22.65 L6.55166362,22.65 L6.55166362,23.4 L8.40322612,23.4 L8.40322612,18.3046875 L6.37822612,18.3046875 L6.37822612,20.925 C6.37822612,21.271875 6.31494487,21.53125 6.18838237,21.703125 C6.06181987,21.875 5.87197612,21.9609375 5.61885112,21.9609375 C5.36572612,21.9609375 5.18760112,21.8867188 5.08447612,21.7382812 C4.98135112,21.5898438 4.92978862,21.321875 4.92978862,20.934375 L4.92978862,20.934375 L4.92978862,18.3046875 L2.90478862,18.3046875 L2.90478862,20.94375 C2.90478862,21.559375 2.93603862,21.9976562 2.99853862,22.2585937 C3.06103862,22.5195312 3.16728862,22.740625 3.31728862,22.921875 C3.48603862,23.125 3.69228862,23.278125 3.93603862,23.38125 C4.17978862,23.484375 4.45635112,23.5359375 4.76572612,23.5359375 Z M11.8190901,23.5828125 C12.6347151,23.5828125 13.2886213,23.3890625 13.7808088,23.0015625 C14.2729963,22.6140625 14.5409651,22.084375 14.5847151,21.4125 L14.5847151,21.4125 L12.5597151,21.4125 C12.5347151,21.6625 12.4558088,21.8515625 12.3229963,21.9796875 C12.1901838,22.1078125 12.0065901,22.171875 11.7722151,22.171875 C11.4815901,22.171875 11.2698713,22.065625 11.1370588,21.853125 C11.0042463,21.640625 10.9378401,21.3046875 10.9378401,20.8453125 C10.9378401,20.3921875 11.0065901,20.0601562 11.1440901,19.8492187 C11.2815901,19.6382812 11.4972151,19.5328125 11.7909651,19.5328125 C12.0253401,19.5328125 12.2034651,19.590625 12.3253401,19.70625 C12.4472151,19.821875 12.5190901,20 12.5409651,20.240625 L12.5409651,20.240625 L14.5659651,20.240625 C14.5409651,19.59375 14.2784651,19.0789062 13.7784651,18.6960937 C13.2784651,18.3132812 12.6190901,18.121875 11.8003401,18.121875 C10.8972151,18.121875 10.1862776,18.3648437 9.66752758,18.8507812 C9.14877758,19.3367187 8.88940258,20.0015625 8.88940258,20.8453125 C8.88940258,21.6890625 9.15190258,22.35625 9.67690258,22.846875 C10.2019026,23.3375 10.9159651,23.5828125 11.8190901,23.5828125 Z M16.847454,23.5359375 C17.222454,23.5359375 17.5466728,23.459375 17.8201103,23.30625 C18.0935478,23.153125 18.325579,22.91875 18.516204,22.603125 L18.516204,22.603125 L18.516204,23.4 L19.0740165,23.4 L19.0740165,18.4171875 L18.497454,18.4171875 L18.497454,21.365625 C18.497454,21.875 18.3591728,22.2757812 18.0826103,22.5679687 C17.8060478,22.8601562 17.428704,23.00625 16.950579,23.00625 C16.513079,23.00625 16.200579,22.9015625 16.013079,22.6921875 C15.825579,22.4828125 15.731829,22.1296875 15.731829,21.6328125 L15.731829,21.6328125 L15.731829,18.4171875 L15.1552665,18.4171875 L15.1552665,21.76875 C15.1552665,22.35625 15.2966728,22.7976562 15.5794853,23.0929687 C15.8622978,23.3882812 16.284954,23.5359375 16.847454,23.5359375 Z M21.960193,23.5265625 C22.550818,23.5265625 23.0305055,23.3617187 23.3992555,23.0320312 C23.7680055,22.7023437 23.978943,22.2515625 24.032068,21.6796875 L24.032068,21.6796875 L23.4555055,21.6796875 C23.3961305,22.1015625 23.2367555,22.4328125 22.9773805,22.6734375 C22.7180055,22.9140625 22.394568,23.034375 22.007068,23.034375 C21.510193,23.034375 21.1140993,22.8421875 20.8187868,22.4578125 C20.5234743,22.0734375 20.375818,21.5515625 20.375818,20.8921875 C20.375818,20.2484375 20.5219118,19.7390625 20.8140993,19.3640625 C21.1062868,18.9890625 21.500818,18.8015625 21.997693,18.8015625 C22.375818,18.8015625 22.6937868,18.9109375 22.9515993,19.1296875 C23.2094118,19.3484375 23.3617555,19.6390625 23.4086305,20.0015625 L23.4086305,20.0015625 L23.9617555,20.0015625 C23.9336305,19.4890625 23.7390993,19.0757812 23.3781618,18.7617188 C23.0172243,18.4476562 22.557068,18.290625 21.997693,18.290625 C21.310193,18.290625 20.7687868,18.5265625 20.3734743,18.9984375 C19.9781618,19.4703125 19.7805055,20.11875 19.7805055,20.94375 C19.7805055,21.740625 19.9750368,22.3703125 20.3640993,22.8328125 C20.7531618,23.2953125 21.285193,23.5265625 21.960193,23.5265625 Z M26.3182445,23.5359375 C26.6932445,23.5359375 27.0174632,23.459375 27.2909007,23.30625 C27.5643382,23.153125 27.7963695,22.91875 27.9869945,22.603125 L27.9869945,22.603125 L27.9869945,23.4 L28.544807,23.4 L28.544807,18.4171875 L27.9682445,18.4171875 L27.9682445,21.365625 C27.9682445,21.875 27.8299632,22.2757812 27.5534007,22.5679687 C27.2768382,22.8601562 26.8994945,23.00625 26.4213695,23.00625 C25.9838695,23.00625 25.6713695,22.9015625 25.4838695,22.6921875 C25.2963695,22.4828125 25.2026195,22.1296875 25.2026195,21.6328125 L25.2026195,21.6328125 L25.2026195,18.4171875 L24.626057,18.4171875 L24.626057,21.76875 C24.626057,22.35625 24.7674632,22.7976562 25.0502757,23.0929687 C25.3330882,23.3882812 25.7557445,23.5359375 26.3182445,23.5359375 Z M31.4122335,25.44375 C32.1903585,25.44375 32.7786397,25.25 33.1770772,24.8625 C33.5755147,24.475 33.7747335,23.9015625 33.7747335,23.1421875 L33.7747335,23.1421875 L33.7747335,18.4171875 L33.198171,18.4171875 L33.198171,19.2796875 C33.004421,18.9515625 32.763796,18.7046875 32.476296,18.5390625 C32.188796,18.3734375 31.8528585,18.290625 31.4684835,18.290625 C30.7934835,18.290625 30.2567647,18.5265625 29.8583272,18.9984375 C29.4598897,19.4703125 29.260671,20.109375 29.260671,20.915625 C29.260671,21.728125 29.457546,22.3679687 29.851296,22.8351562 C30.245046,23.3023437 30.7841085,23.5359375 31.4684835,23.5359375 C31.8466085,23.5359375 32.1802022,23.4539062 32.4692647,23.2898437 C32.7583272,23.1257812 33.004421,22.878125 33.207546,22.546875 L33.207546,22.546875 L33.207546,23.1609375 C33.207546,23.7453125 33.0567647,24.1859375 32.7552022,24.4828125 C32.4536397,24.7796875 32.0028585,24.928125 31.4028585,24.928125 C30.9841085,24.928125 30.6552022,24.846875 30.4161397,24.684375 C30.1770772,24.521875 30.0403585,24.2890625 30.0059835,23.9859375 L30.0059835,23.9859375 L29.4153585,23.9859375 C29.4497335,24.4359375 29.6458272,24.7914062 30.0036397,25.0523437 C30.3614522,25.3132812 30.8309835,25.44375 31.4122335,25.44375 Z M31.5528585,23.034375 C31.0309835,23.034375 30.6208272,22.8460937 30.3223897,22.4695312 C30.0239522,22.0929687 29.8747335,21.575 29.8747335,20.915625 C29.8747335,20.2375 30.020046,19.715625 30.310671,19.35 C30.601296,18.984375 31.0153585,18.8015625 31.5528585,18.8015625 C32.0903585,18.8015625 32.5067647,18.9859375 32.8020772,19.3546875 C33.0973897,19.7234375 33.245046,20.24375 33.245046,20.915625 C33.245046,21.584375 33.0966085,22.1046875 32.7997335,22.4765625 C32.5028585,22.8484375 32.0872335,23.034375 31.5528585,23.034375 Z M36.1218474,23.5265625 C36.4749724,23.5265625 36.8046599,23.45625 37.1109099,23.315625 C37.4171599,23.175 37.7015349,22.9625 37.9640349,22.678125 L37.9640349,22.678125 L37.9640349,22.7578125 C37.9640349,22.9859375 38.0234099,23.1578125 38.1421599,23.2734375 C38.2609099,23.3890625 38.4390349,23.446875 38.6765349,23.446875 C38.7359099,23.446875 38.8015349,23.4429687 38.8734099,23.4351562 C38.9452849,23.4273437 39.0171599,23.415625 39.0890349,23.4 L39.0890349,23.4 L39.0890349,22.96875 C39.0546599,22.971875 39.0218474,22.9742187 38.9905974,22.9757812 C38.9593474,22.9773437 38.9218474,22.978125 38.8780974,22.978125 C38.7405974,22.978125 38.6468474,22.953125 38.5968474,22.903125 C38.5468474,22.853125 38.5218474,22.725 38.5218474,22.51875 L38.5218474,22.51875 L38.5218474,19.8 C38.5218474,19.30625 38.3671599,18.93125 38.0577849,18.675 C37.7484099,18.41875 37.2952849,18.290625 36.6984099,18.290625 C36.0984099,18.290625 35.6218474,18.4351562 35.2687224,18.7242187 C34.9155974,19.0132812 34.7327849,19.40625 34.7202849,19.903125 L34.7202849,19.903125 L35.2874724,19.9078125 C35.3062224,19.5421875 35.4343474,19.2664062 35.6718474,19.0804687 C35.9093474,18.8945312 36.2515349,18.8015625 36.6984099,18.8015625 C37.1390349,18.8015625 37.4554412,18.8851562 37.6476287,19.0523437 C37.8398162,19.2195312 37.9359099,19.496875 37.9359099,19.884375 C37.9359099,20.196875 37.6984099,20.4015625 37.2234099,20.4984375 C37.1546599,20.5109375 37.0999724,20.521875 37.0593474,20.53125 C36.9905974,20.5375 36.8890349,20.5453125 36.7546599,20.5546875 C36.0609099,20.6078125 35.5655974,20.7015625 35.2687224,20.8359375 C35.0093474,20.9578125 34.8116912,21.125 34.6757537,21.3375 C34.5398162,21.55 34.4718474,21.7984375 34.4718474,22.0828125 C34.4718474,22.5203125 34.6210662,22.8703125 34.9195037,23.1328125 C35.2179412,23.3953125 35.6187224,23.5265625 36.1218474,23.5265625 Z M36.1921599,23.00625 C35.8452849,23.00625 35.5710662,22.921875 35.3695037,22.753125 C35.1679412,22.584375 35.0671599,22.3578125 35.0671599,22.0734375 C35.0671599,21.8234375 35.1609099,21.609375 35.3484099,21.43125 C35.5359099,21.253125 35.8140349,21.115625 36.1827849,21.01875 C36.7140349,20.990625 37.0991912,20.959375 37.3382537,20.925 C37.5773162,20.890625 37.7734099,20.8453125 37.9265349,20.7890625 L37.9265349,20.7890625 L37.9265349,21.478125 C37.9265349,21.95 37.7695037,22.3226562 37.4554412,22.5960937 C37.1413787,22.8695312 36.7202849,23.00625 36.1921599,23.00625 Z" id="ucucuga" fill="#FFFFFF" fill-rule="nonzero"></path>
                </g>
                <path d="M64.8628,35.98 L66.27472,31.29136 L73.1212,31.29136 L74.50648,35.98 L78.50248,35.98 L71.73592,16.5328 L67.73992,16.5328 L61,35.98 L64.8628,35.98 Z M72.26872,28.44088 L67.10056,28.44088 L69.658,19.80952 L69.71128,19.80952 L72.26872,28.44088 Z M84.3214918,19.1968 L84.3214918,16 L80.6718118,16 L80.6718118,19.1968 L84.3214918,19.1968 Z M84.3214918,35.98 L84.3214918,22.1272 L80.6718118,22.1272 L80.6718118,35.98 L84.3214918,35.98 Z M91.0995436,35.98 L91.0995436,29.93272 C91.0995436,28.33432 91.6456636,27.06004 92.7379036,26.10988 C93.8301436,25.15972 95.3619436,24.68464 97.3333036,24.68464 L97.3333036,24.68464 L97.3333036,21.8608 C94.6693036,21.8608 92.5469836,22.8376 90.9663436,24.7912 L90.9663436,24.7912 L90.9130636,24.7912 L90.8597836,22.1272 L87.5564236,22.1272 L87.5564236,35.98 L91.0995436,35.98 Z M102.885116,35.98 L102.885116,16 L99.2354356,16 L99.2354356,35.98 L102.885116,35.98 Z M110.036127,19.1968 L110.036127,16 L106.386447,16 L106.386447,19.1968 L110.036127,19.1968 Z M110.036127,35.98 L110.036127,22.1272 L106.386447,22.1272 L106.386447,35.98 L110.036127,35.98 Z M116.734259,35.98 L116.734259,28.60072 C116.734259,27.53512 117.058379,26.60272 117.706619,25.80352 C118.354859,25.00432 119.069699,24.60472 119.851139,24.60472 C120.774659,24.60472 121.414019,24.87556 121.769219,25.41724 C122.124419,25.95892 122.302019,26.99344 122.302019,28.5208 L122.302019,28.5208 L122.302019,35.98 L125.711939,35.98 L125.711939,28.17448 C125.711939,25.93672 125.334539,24.325 124.579739,23.33932 C123.824939,22.35364 122.648339,21.8608 121.049939,21.8608 C120.215219,21.8608 119.402699,22.05616 118.612379,22.44688 C117.822059,22.8376 117.160499,23.37928 116.627699,24.07192 L116.627699,24.07192 L116.574419,24.07192 L116.521139,22.1272 L113.271059,22.1272 L113.271059,35.98 L116.734259,35.98 Z M134.141671,36.2464 C135.917671,36.2464 137.604871,35.8912 139.203271,35.1808 L139.203271,35.1808 L138.404071,32.72992 C137.107591,33.38704 135.802231,33.7156 134.487991,33.7156 C133.386871,33.7156 132.476671,33.40924 131.757391,32.79652 C131.038111,32.1838 130.634071,31.35352 130.545271,30.30568 L130.545271,30.30568 L140.242231,30.30568 C140.295511,29.86168 140.322151,29.41768 140.322151,28.97368 C140.322151,26.68264 139.749391,24.9244 138.603871,23.69896 C137.458351,22.47352 135.855511,21.8608 133.795351,21.8608 C131.735191,21.8608 130.101271,22.50016 128.893591,23.77888 C127.685911,25.0576 127.082071,26.81584 127.082071,29.0536 C127.082071,31.25584 127.734751,33.0052 129.040111,34.30168 C130.345471,35.59816 132.045991,36.2464 134.141671,36.2464 Z M137.045431,27.93472 L130.545271,27.93472 C130.598551,26.79808 130.913791,25.91896 131.490991,25.29736 C132.068191,24.67576 132.845191,24.36496 133.821991,24.36496 C134.834311,24.36496 135.620191,24.67132 136.179631,25.28404 C136.739071,25.89676 137.027671,26.78032 137.045431,27.93472 L137.045431,27.93472 Z M147.153483,36.2464 C148.947243,36.2464 150.336963,35.87788 151.322643,35.14084 C152.308323,34.4038 152.801163,33.39592 152.801163,32.1172 C152.801163,30.82072 152.374923,29.80396 151.522443,29.06692 C150.669963,28.32988 149.258043,27.81928 147.286683,27.53512 C146.398683,27.4108 145.777083,27.22432 145.421883,26.97568 C145.066683,26.72704 144.889083,26.37184 144.889083,25.91008 C144.889083,24.95104 145.706043,24.47152 147.339963,24.47152 C148.760763,24.47152 150.208203,24.80896 151.682283,25.48384 L151.682283,25.48384 L152.348283,22.87312 C150.732123,22.19824 149.000523,21.8608 147.153483,21.8608 C145.306443,21.8608 143.898963,22.22044 142.931043,22.93972 C141.963123,23.659 141.479163,24.63136 141.479163,25.8568 C141.479163,27.1 141.900963,28.08568 142.744563,28.81384 C143.588163,29.542 144.986763,30.06592 146.940363,30.3856 C147.863883,30.54544 148.485483,30.74524 148.805163,30.985 C149.124843,31.22476 149.284683,31.5844 149.284683,32.06392 C149.284683,33.094 148.512123,33.60904 146.967003,33.60904 C145.226523,33.60904 143.601483,33.17392 142.091883,32.30368 L142.091883,32.30368 L141.425883,34.9144 C143.095323,35.8024 145.004523,36.2464 147.153483,36.2464 Z" id="Airlines" fill="#747679" fill-rule="nonzero"></path>
                <line x1="165.24" y1="2" x2="165.24" y2="50.96" id="Path-2" stroke="#979797" stroke-width="0.5"></line>
            </g>
        </g>
    </g>
</svg>