<svg width="672" height="266" viewBox="0 0 672 266" fill="none" xmlns="http://www.w3.org/2000/svg">
<mask id="path-1-outside-1" maskUnits="userSpaceOnUse" x="16" y="186" width="644" height="80" fill="black">
<rect fill="white" x="16" y="186" width="644" height="80"/>
<path d="M72.6086 207.29L68.6378 204.774C67.4009 205.097 66.1641 205.097 65.1877 205.097H32.5096C30.3614 205.097 27.8227 204.903 26 204.71V210.387C27.6925 210.323 29.9057 210.194 32.5096 210.194H65.7735C64.8622 216.387 61.8678 225.355 57.246 231.226C51.7779 238.129 44.4872 243.613 31.8586 246.774L36.2851 251.613C48.2628 247.871 56.0092 241.871 61.9329 234.323C67.0755 227.677 70.2652 217.29 71.6322 210.516C71.8925 209.29 72.1529 208.194 72.6086 207.29Z"/>
<path d="M96.6941 202.129V207.484C98.4516 207.355 100.535 207.29 102.553 207.29H128.07C130.283 207.29 132.497 207.355 134.059 207.484V202.129C132.497 202.387 130.218 202.452 128.135 202.452H102.553C100.47 202.452 98.3865 202.387 96.6941 202.129ZM138.811 219.161L135.101 216.839C134.385 217.226 133.018 217.355 131.52 217.355H97.2148C95.4572 217.355 93.244 217.226 90.8354 216.968V222.387C93.1789 222.258 95.6525 222.194 97.2148 222.194H131.781C130.609 226.839 128.005 232.323 124.034 236.452C118.501 242.258 110.364 246.387 101.121 248.258L105.157 252.839C113.489 250.581 121.626 246.774 128.461 239.355C133.278 234.129 136.207 227.419 137.965 221.032C138.095 220.581 138.486 219.742 138.811 219.161Z"/>
<path d="M196.551 198.581L193.101 200.065C194.859 202.452 197.072 206.387 198.374 208.968L201.889 207.419C200.522 204.774 198.178 200.903 196.551 198.581ZM203.712 196L200.261 197.484C202.084 199.871 204.232 203.548 205.664 206.323L209.18 204.774C207.943 202.387 205.404 198.387 203.712 196ZM179.04 201.677L173.051 199.677C172.661 201.355 171.684 203.677 171.033 204.839C168.169 210.581 161.79 220 150.593 226.645L155.085 229.935C162.246 225.29 167.648 219.548 171.619 214.065H193.557C192.255 219.935 188.219 228.323 183.206 234.194C177.283 241.097 169.146 246.903 157.168 250.387L161.92 254.645C174.093 250.129 181.904 244.258 187.828 237.097C193.622 230.065 197.593 221.355 199.35 214.839C199.676 213.806 200.327 212.323 200.847 211.419L196.551 208.839C195.509 209.226 194.077 209.419 192.32 209.419H174.679C175.2 208.516 175.72 207.613 176.176 206.71C176.827 205.548 177.999 203.355 179.04 201.677Z"/>
<path d="M241.793 199.161L236.455 198.71C236.325 201.097 235.739 204 234.827 206.774C233.395 206.839 231.898 206.839 230.531 206.839C227.537 206.839 222.98 206.581 219.53 206.129V210.968C223.11 211.226 227.406 211.355 230.206 211.355C231.117 211.355 232.093 211.355 233.07 211.355C230.596 216.581 226.235 223.226 218.033 231.097L222.459 234.323C224.672 231.742 226.495 229.355 228.383 227.613C231.312 224.903 235.478 222.903 239.579 222.903C242.509 222.903 244.852 224.129 245.503 226.903C237.887 230.839 230.14 235.613 230.14 243.226C230.14 251.097 237.626 253.097 246.935 253.097C252.599 253.097 259.824 252.581 264.771 251.935L264.902 246.774C259.173 247.742 252.208 248.323 247.13 248.323C240.426 248.323 235.348 247.548 235.348 242.516C235.348 238.258 239.579 234.839 245.633 231.677C245.633 235.097 245.568 239.29 245.438 241.742H250.45C250.385 238.581 250.32 233.097 250.255 229.355C255.202 227.032 259.824 225.161 263.47 223.806C265.227 223.097 267.571 222.194 269.263 221.742L267.115 216.903C265.292 217.871 263.73 218.581 261.777 219.419C258.392 220.968 254.421 222.516 249.995 224.645C248.953 220.903 245.503 218.839 241.272 218.839C238.473 218.839 234.697 219.677 232.224 221.226C234.437 218.323 236.585 214.645 238.082 211.226C245.178 210.968 253.249 210.452 259.694 209.419L259.759 204.645C253.64 205.742 246.545 206.323 239.905 206.645C240.881 203.613 241.402 201.097 241.793 199.161Z"/>
<path d="M302.462 204.581C302.657 205.355 303.113 207.871 303.829 211.355C297.71 212.323 292.047 213.161 289.508 213.419C287.425 213.677 285.732 213.806 284.105 213.871L285.212 219.677C287.164 219.226 288.662 218.903 290.484 218.581C292.958 218.129 298.621 217.226 304.805 216.258C305.587 220.258 306.498 224.839 307.409 229.226C299.988 230.387 292.893 231.484 289.638 231.935C287.946 232.194 285.407 232.452 283.91 232.516L285.081 238.129C286.448 237.742 288.271 237.419 290.81 236.968C293.999 236.387 300.965 235.226 308.321 234C309.557 240.387 310.599 245.613 310.859 247.032C311.315 248.968 311.51 250.903 311.836 253.097L317.759 252C317.174 250.194 316.653 248 316.197 246.129C315.872 244.645 314.83 239.484 313.528 233.161C319.908 232.194 325.962 231.226 329.542 230.645C331.95 230.258 334.033 229.935 335.4 229.806L334.359 224.387C332.927 224.774 331.104 225.161 328.565 225.613C325.311 226.194 319.126 227.29 312.552 228.323C311.706 224 310.794 219.419 309.948 215.419C316.197 214.452 322.121 213.484 325.115 213.032C326.808 212.774 328.826 212.516 329.802 212.387L328.696 206.968C327.589 207.29 325.962 207.742 324.074 208.065C321.34 208.581 315.351 209.548 309.037 210.581C308.255 206.968 307.8 204.323 307.67 203.613C307.474 202.194 307.149 200.387 307.084 199.161L301.225 200.194C301.681 201.484 302.136 202.903 302.462 204.581Z"/>
<path d="M367.102 210.71L361.504 212.065C362.09 213.032 362.61 214.323 363.066 215.935C363.457 217.161 364.238 219.935 365.214 223.355C361.243 224.065 358.184 224.645 357.273 224.774C355.32 225.097 353.692 225.355 351.87 225.484L353.172 230.387C354.929 230 360.267 228.968 366.386 227.742C368.925 236.968 372.049 248.387 372.896 251.29C373.351 252.903 373.677 254.581 373.872 256L379.405 254.581C379.015 253.419 378.364 251.419 377.973 250.194C377.127 247.355 373.937 236 371.333 226.71C380.382 224.903 389.56 223.097 391.057 222.839C388.844 226.71 383.962 232.645 379.861 236.129L384.483 238.387C388.909 234.065 395.614 225.032 398.348 219.548L395.093 217.29C394.442 217.613 393.401 217.871 392.62 218.065C390.406 218.581 379.34 220.71 370.162 222.452C369.185 219.032 368.404 216.258 368.013 214.839C367.623 213.226 367.297 211.806 367.102 210.71Z"/>
<path d="M459.538 203.871C459.538 201.484 461.491 199.548 463.834 199.548C466.243 199.548 468.196 201.484 468.196 203.871C468.196 206.194 466.243 208.129 463.834 208.129C461.491 208.129 459.538 206.194 459.538 203.871ZM456.544 203.871C456.544 204.581 456.674 205.29 456.869 205.935C456.088 206 455.372 206 454.786 206H422.108C419.96 206 417.421 205.806 415.598 205.548V211.29C417.291 211.226 419.504 211.097 422.108 211.097H455.372C454.526 217.29 451.466 226.258 446.844 232.129C441.441 239.032 434.086 244.516 421.457 247.613L425.884 252.452C437.861 248.774 445.608 242.774 451.531 235.226C456.674 228.581 459.864 218.194 461.231 211.419C461.296 211.161 461.361 210.903 461.361 210.71C462.142 210.968 462.988 211.097 463.834 211.097C467.87 211.097 471.19 207.871 471.19 203.871C471.19 199.871 467.87 196.581 463.834 196.581C459.798 196.581 456.544 199.871 456.544 203.871Z"/>
<path d="M483.038 205.355L484.34 210.129C489.352 210.065 496.708 209.871 503.283 209.226V220.968H483.689C481.736 220.968 479.457 220.839 477.96 220.71V226.065C479.523 225.935 481.736 225.806 483.819 225.806H503.152C502.371 237.355 496.968 244.581 486.683 249.29L491.826 252.839C503.022 246.387 507.774 237.871 508.49 225.806H526.652C528.279 225.806 530.232 225.935 531.664 226.065V220.71C530.297 220.839 527.954 220.968 526.522 220.968H508.555V208.581C513.242 207.871 518.255 206.903 521.509 206.065C522.421 205.806 523.723 205.484 525.155 205.097L521.705 200.645C518.515 202 510.834 203.548 504.91 204.387C497.88 205.29 487.985 205.548 483.038 205.355Z"/>
<path d="M561.754 210.71L556.156 212.065C556.741 213.032 557.262 214.323 557.718 215.935C558.108 217.161 558.89 219.935 559.866 223.355C555.895 224.065 552.836 224.645 551.924 224.774C549.971 225.097 548.344 225.355 546.521 225.484L547.823 230.387C549.581 230 554.919 228.968 561.038 227.742C563.576 236.968 566.701 248.387 567.547 251.29C568.003 252.903 568.328 254.581 568.524 256L574.057 254.581C573.666 253.419 573.015 251.419 572.625 250.194C571.779 247.355 568.589 236 565.985 226.71C575.033 224.903 584.212 223.097 585.709 222.839C583.496 226.71 578.614 232.645 574.513 236.129L579.134 238.387C583.561 234.065 590.266 225.032 593 219.548L589.745 217.29C589.094 217.613 588.053 217.871 587.271 218.065C585.058 218.581 573.992 220.71 564.813 222.452C563.837 219.032 563.056 216.258 562.665 214.839C562.275 213.226 561.949 211.806 561.754 210.71Z"/>
<path d="M609.729 238.258L608.167 218.258V205.161H613.896V218.258L612.333 238.258H609.729ZM611.031 250.968C609.643 250.968 608.623 250.624 607.972 249.935C607.364 249.247 607.061 248.344 607.061 247.226V246.387C607.061 245.269 607.364 244.366 607.972 243.677C608.623 242.989 609.643 242.645 611.031 242.645C612.42 242.645 613.418 242.989 614.026 243.677C614.677 244.366 615.002 245.269 615.002 246.387V247.226C615.002 248.344 614.677 249.247 614.026 249.935C613.418 250.624 612.42 250.968 611.031 250.968Z"/>
<path d="M628.228 238.258L626.666 218.258V205.161H632.394V218.258L630.832 238.258H628.228ZM629.53 250.968C628.142 250.968 627.122 250.624 626.471 249.935C625.863 249.247 625.559 248.344 625.559 247.226V246.387C625.559 245.269 625.863 244.366 626.471 243.677C627.122 242.989 628.142 242.645 629.53 242.645C630.919 242.645 631.917 242.989 632.525 243.677C633.176 244.366 633.501 245.269 633.501 246.387V247.226C633.501 248.344 633.176 249.247 632.525 249.935C631.917 250.624 630.919 250.968 629.53 250.968Z"/>
<path d="M646.727 238.258L645.165 218.258V205.161H650.893V218.258L649.331 238.258H646.727ZM648.029 250.968C646.64 250.968 645.621 250.624 644.97 249.935C644.362 249.247 644.058 248.344 644.058 247.226V246.387C644.058 245.269 644.362 244.366 644.97 243.677C645.621 242.989 646.64 242.645 648.029 242.645C649.418 242.645 650.416 242.989 651.024 243.677C651.675 244.366 652 245.269 652 246.387V247.226C652 248.344 651.675 249.247 651.024 249.935C650.416 250.624 649.418 250.968 648.029 250.968Z"/>
</mask>
<path d="M72.6086 207.29L68.6378 204.774C67.4009 205.097 66.1641 205.097 65.1877 205.097H32.5096C30.3614 205.097 27.8227 204.903 26 204.71V210.387C27.6925 210.323 29.9057 210.194 32.5096 210.194H65.7735C64.8622 216.387 61.8678 225.355 57.246 231.226C51.7779 238.129 44.4872 243.613 31.8586 246.774L36.2851 251.613C48.2628 247.871 56.0092 241.871 61.9329 234.323C67.0755 227.677 70.2652 217.29 71.6322 210.516C71.8925 209.29 72.1529 208.194 72.6086 207.29Z" fill="#F9653F"/>
<path d="M96.6941 202.129V207.484C98.4516 207.355 100.535 207.29 102.553 207.29H128.07C130.283 207.29 132.497 207.355 134.059 207.484V202.129C132.497 202.387 130.218 202.452 128.135 202.452H102.553C100.47 202.452 98.3865 202.387 96.6941 202.129ZM138.811 219.161L135.101 216.839C134.385 217.226 133.018 217.355 131.52 217.355H97.2148C95.4572 217.355 93.244 217.226 90.8354 216.968V222.387C93.1789 222.258 95.6525 222.194 97.2148 222.194H131.781C130.609 226.839 128.005 232.323 124.034 236.452C118.501 242.258 110.364 246.387 101.121 248.258L105.157 252.839C113.489 250.581 121.626 246.774 128.461 239.355C133.278 234.129 136.207 227.419 137.965 221.032C138.095 220.581 138.486 219.742 138.811 219.161Z" fill="#F9653F"/>
<path d="M196.551 198.581L193.101 200.065C194.859 202.452 197.072 206.387 198.374 208.968L201.889 207.419C200.522 204.774 198.178 200.903 196.551 198.581ZM203.712 196L200.261 197.484C202.084 199.871 204.232 203.548 205.664 206.323L209.18 204.774C207.943 202.387 205.404 198.387 203.712 196ZM179.04 201.677L173.051 199.677C172.661 201.355 171.684 203.677 171.033 204.839C168.169 210.581 161.79 220 150.593 226.645L155.085 229.935C162.246 225.29 167.648 219.548 171.619 214.065H193.557C192.255 219.935 188.219 228.323 183.206 234.194C177.283 241.097 169.146 246.903 157.168 250.387L161.92 254.645C174.093 250.129 181.904 244.258 187.828 237.097C193.622 230.065 197.593 221.355 199.35 214.839C199.676 213.806 200.327 212.323 200.847 211.419L196.551 208.839C195.509 209.226 194.077 209.419 192.32 209.419H174.679C175.2 208.516 175.72 207.613 176.176 206.71C176.827 205.548 177.999 203.355 179.04 201.677Z" fill="#F9653F"/>
<path d="M241.793 199.161L236.455 198.71C236.325 201.097 235.739 204 234.827 206.774C233.395 206.839 231.898 206.839 230.531 206.839C227.537 206.839 222.98 206.581 219.53 206.129V210.968C223.11 211.226 227.406 211.355 230.206 211.355C231.117 211.355 232.093 211.355 233.07 211.355C230.596 216.581 226.235 223.226 218.033 231.097L222.459 234.323C224.672 231.742 226.495 229.355 228.383 227.613C231.312 224.903 235.478 222.903 239.579 222.903C242.509 222.903 244.852 224.129 245.503 226.903C237.887 230.839 230.14 235.613 230.14 243.226C230.14 251.097 237.626 253.097 246.935 253.097C252.599 253.097 259.824 252.581 264.771 251.935L264.902 246.774C259.173 247.742 252.208 248.323 247.13 248.323C240.426 248.323 235.348 247.548 235.348 242.516C235.348 238.258 239.579 234.839 245.633 231.677C245.633 235.097 245.568 239.29 245.438 241.742H250.45C250.385 238.581 250.32 233.097 250.255 229.355C255.202 227.032 259.824 225.161 263.47 223.806C265.227 223.097 267.571 222.194 269.263 221.742L267.115 216.903C265.292 217.871 263.73 218.581 261.777 219.419C258.392 220.968 254.421 222.516 249.995 224.645C248.953 220.903 245.503 218.839 241.272 218.839C238.473 218.839 234.697 219.677 232.224 221.226C234.437 218.323 236.585 214.645 238.082 211.226C245.178 210.968 253.249 210.452 259.694 209.419L259.759 204.645C253.64 205.742 246.545 206.323 239.905 206.645C240.881 203.613 241.402 201.097 241.793 199.161Z" fill="#F9653F"/>
<path d="M302.462 204.581C302.657 205.355 303.113 207.871 303.829 211.355C297.71 212.323 292.047 213.161 289.508 213.419C287.425 213.677 285.732 213.806 284.105 213.871L285.212 219.677C287.164 219.226 288.662 218.903 290.484 218.581C292.958 218.129 298.621 217.226 304.805 216.258C305.587 220.258 306.498 224.839 307.409 229.226C299.988 230.387 292.893 231.484 289.638 231.935C287.946 232.194 285.407 232.452 283.91 232.516L285.081 238.129C286.448 237.742 288.271 237.419 290.81 236.968C293.999 236.387 300.965 235.226 308.321 234C309.557 240.387 310.599 245.613 310.859 247.032C311.315 248.968 311.51 250.903 311.836 253.097L317.759 252C317.174 250.194 316.653 248 316.197 246.129C315.872 244.645 314.83 239.484 313.528 233.161C319.908 232.194 325.962 231.226 329.542 230.645C331.95 230.258 334.033 229.935 335.4 229.806L334.359 224.387C332.927 224.774 331.104 225.161 328.565 225.613C325.311 226.194 319.126 227.29 312.552 228.323C311.706 224 310.794 219.419 309.948 215.419C316.197 214.452 322.121 213.484 325.115 213.032C326.808 212.774 328.826 212.516 329.802 212.387L328.696 206.968C327.589 207.29 325.962 207.742 324.074 208.065C321.34 208.581 315.351 209.548 309.037 210.581C308.255 206.968 307.8 204.323 307.67 203.613C307.474 202.194 307.149 200.387 307.084 199.161L301.225 200.194C301.681 201.484 302.136 202.903 302.462 204.581Z" fill="#F9653F"/>
<path d="M367.102 210.71L361.504 212.065C362.09 213.032 362.61 214.323 363.066 215.935C363.457 217.161 364.238 219.935 365.214 223.355C361.243 224.065 358.184 224.645 357.273 224.774C355.32 225.097 353.692 225.355 351.87 225.484L353.172 230.387C354.929 230 360.267 228.968 366.386 227.742C368.925 236.968 372.049 248.387 372.896 251.29C373.351 252.903 373.677 254.581 373.872 256L379.405 254.581C379.015 253.419 378.364 251.419 377.973 250.194C377.127 247.355 373.937 236 371.333 226.71C380.382 224.903 389.56 223.097 391.057 222.839C388.844 226.71 383.962 232.645 379.861 236.129L384.483 238.387C388.909 234.065 395.614 225.032 398.348 219.548L395.093 217.29C394.442 217.613 393.401 217.871 392.62 218.065C390.406 218.581 379.34 220.71 370.162 222.452C369.185 219.032 368.404 216.258 368.013 214.839C367.623 213.226 367.297 211.806 367.102 210.71Z" fill="#F9653F"/>
<path d="M459.538 203.871C459.538 201.484 461.491 199.548 463.834 199.548C466.243 199.548 468.196 201.484 468.196 203.871C468.196 206.194 466.243 208.129 463.834 208.129C461.491 208.129 459.538 206.194 459.538 203.871ZM456.544 203.871C456.544 204.581 456.674 205.29 456.869 205.935C456.088 206 455.372 206 454.786 206H422.108C419.96 206 417.421 205.806 415.598 205.548V211.29C417.291 211.226 419.504 211.097 422.108 211.097H455.372C454.526 217.29 451.466 226.258 446.844 232.129C441.441 239.032 434.086 244.516 421.457 247.613L425.884 252.452C437.861 248.774 445.608 242.774 451.531 235.226C456.674 228.581 459.864 218.194 461.231 211.419C461.296 211.161 461.361 210.903 461.361 210.71C462.142 210.968 462.988 211.097 463.834 211.097C467.87 211.097 471.19 207.871 471.19 203.871C471.19 199.871 467.87 196.581 463.834 196.581C459.798 196.581 456.544 199.871 456.544 203.871Z" fill="#F9653F"/>
<path d="M483.038 205.355L484.34 210.129C489.352 210.065 496.708 209.871 503.283 209.226V220.968H483.689C481.736 220.968 479.457 220.839 477.96 220.71V226.065C479.523 225.935 481.736 225.806 483.819 225.806H503.152C502.371 237.355 496.968 244.581 486.683 249.29L491.826 252.839C503.022 246.387 507.774 237.871 508.49 225.806H526.652C528.279 225.806 530.232 225.935 531.664 226.065V220.71C530.297 220.839 527.954 220.968 526.522 220.968H508.555V208.581C513.242 207.871 518.255 206.903 521.509 206.065C522.421 205.806 523.723 205.484 525.155 205.097L521.705 200.645C518.515 202 510.834 203.548 504.91 204.387C497.88 205.29 487.985 205.548 483.038 205.355Z" fill="#F9653F"/>
<path d="M561.754 210.71L556.156 212.065C556.741 213.032 557.262 214.323 557.718 215.935C558.108 217.161 558.89 219.935 559.866 223.355C555.895 224.065 552.836 224.645 551.924 224.774C549.971 225.097 548.344 225.355 546.521 225.484L547.823 230.387C549.581 230 554.919 228.968 561.038 227.742C563.576 236.968 566.701 248.387 567.547 251.29C568.003 252.903 568.328 254.581 568.524 256L574.057 254.581C573.666 253.419 573.015 251.419 572.625 250.194C571.779 247.355 568.589 236 565.985 226.71C575.033 224.903 584.212 223.097 585.709 222.839C583.496 226.71 578.614 232.645 574.513 236.129L579.134 238.387C583.561 234.065 590.266 225.032 593 219.548L589.745 217.29C589.094 217.613 588.053 217.871 587.271 218.065C585.058 218.581 573.992 220.71 564.813 222.452C563.837 219.032 563.056 216.258 562.665 214.839C562.275 213.226 561.949 211.806 561.754 210.71Z" fill="#F9653F"/>
<path d="M609.729 238.258L608.167 218.258V205.161H613.896V218.258L612.333 238.258H609.729ZM611.031 250.968C609.643 250.968 608.623 250.624 607.972 249.935C607.364 249.247 607.061 248.344 607.061 247.226V246.387C607.061 245.269 607.364 244.366 607.972 243.677C608.623 242.989 609.643 242.645 611.031 242.645C612.42 242.645 613.418 242.989 614.026 243.677C614.677 244.366 615.002 245.269 615.002 246.387V247.226C615.002 248.344 614.677 249.247 614.026 249.935C613.418 250.624 612.42 250.968 611.031 250.968Z" fill="#F9653F"/>
<path d="M628.228 238.258L626.666 218.258V205.161H632.394V218.258L630.832 238.258H628.228ZM629.53 250.968C628.142 250.968 627.122 250.624 626.471 249.935C625.863 249.247 625.559 248.344 625.559 247.226V246.387C625.559 245.269 625.863 244.366 626.471 243.677C627.122 242.989 628.142 242.645 629.53 242.645C630.919 242.645 631.917 242.989 632.525 243.677C633.176 244.366 633.501 245.269 633.501 246.387V247.226C633.501 248.344 633.176 249.247 632.525 249.935C631.917 250.624 630.919 250.968 629.53 250.968Z" fill="#F9653F"/>
<path d="M646.727 238.258L645.165 218.258V205.161H650.893V218.258L649.331 238.258H646.727ZM648.029 250.968C646.64 250.968 645.621 250.624 644.97 249.935C644.362 249.247 644.058 248.344 644.058 247.226V246.387C644.058 245.269 644.362 244.366 644.97 243.677C645.621 242.989 646.64 242.645 648.029 242.645C649.418 242.645 650.416 242.989 651.024 243.677C651.675 244.366 652 245.269 652 246.387V247.226C652 248.344 651.675 249.247 651.024 249.935C650.416 250.624 649.418 250.968 648.029 250.968Z" fill="#F9653F"/>
<path d="M72.6086 207.29L68.6378 204.774C67.4009 205.097 66.1641 205.097 65.1877 205.097H32.5096C30.3614 205.097 27.8227 204.903 26 204.71V210.387C27.6925 210.323 29.9057 210.194 32.5096 210.194H65.7735C64.8622 216.387 61.8678 225.355 57.246 231.226C51.7779 238.129 44.4872 243.613 31.8586 246.774L36.2851 251.613C48.2628 247.871 56.0092 241.871 61.9329 234.323C67.0755 227.677 70.2652 217.29 71.6322 210.516C71.8925 209.29 72.1529 208.194 72.6086 207.29Z" stroke="#FFE600" stroke-width="16" mask="url(#path-1-outside-1)"/>
<path d="M96.6941 202.129V207.484C98.4516 207.355 100.535 207.29 102.553 207.29H128.07C130.283 207.29 132.497 207.355 134.059 207.484V202.129C132.497 202.387 130.218 202.452 128.135 202.452H102.553C100.47 202.452 98.3865 202.387 96.6941 202.129ZM138.811 219.161L135.101 216.839C134.385 217.226 133.018 217.355 131.52 217.355H97.2148C95.4572 217.355 93.244 217.226 90.8354 216.968V222.387C93.1789 222.258 95.6525 222.194 97.2148 222.194H131.781C130.609 226.839 128.005 232.323 124.034 236.452C118.501 242.258 110.364 246.387 101.121 248.258L105.157 252.839C113.489 250.581 121.626 246.774 128.461 239.355C133.278 234.129 136.207 227.419 137.965 221.032C138.095 220.581 138.486 219.742 138.811 219.161Z" stroke="#FFE600" stroke-width="16" mask="url(#path-1-outside-1)"/>
<path d="M196.551 198.581L193.101 200.065C194.859 202.452 197.072 206.387 198.374 208.968L201.889 207.419C200.522 204.774 198.178 200.903 196.551 198.581ZM203.712 196L200.261 197.484C202.084 199.871 204.232 203.548 205.664 206.323L209.18 204.774C207.943 202.387 205.404 198.387 203.712 196ZM179.04 201.677L173.051 199.677C172.661 201.355 171.684 203.677 171.033 204.839C168.169 210.581 161.79 220 150.593 226.645L155.085 229.935C162.246 225.29 167.648 219.548 171.619 214.065H193.557C192.255 219.935 188.219 228.323 183.206 234.194C177.283 241.097 169.146 246.903 157.168 250.387L161.92 254.645C174.093 250.129 181.904 244.258 187.828 237.097C193.622 230.065 197.593 221.355 199.35 214.839C199.676 213.806 200.327 212.323 200.847 211.419L196.551 208.839C195.509 209.226 194.077 209.419 192.32 209.419H174.679C175.2 208.516 175.72 207.613 176.176 206.71C176.827 205.548 177.999 203.355 179.04 201.677Z" stroke="#FFE600" stroke-width="16" mask="url(#path-1-outside-1)"/>
<path d="M241.793 199.161L236.455 198.71C236.325 201.097 235.739 204 234.827 206.774C233.395 206.839 231.898 206.839 230.531 206.839C227.537 206.839 222.98 206.581 219.53 206.129V210.968C223.11 211.226 227.406 211.355 230.206 211.355C231.117 211.355 232.093 211.355 233.07 211.355C230.596 216.581 226.235 223.226 218.033 231.097L222.459 234.323C224.672 231.742 226.495 229.355 228.383 227.613C231.312 224.903 235.478 222.903 239.579 222.903C242.509 222.903 244.852 224.129 245.503 226.903C237.887 230.839 230.14 235.613 230.14 243.226C230.14 251.097 237.626 253.097 246.935 253.097C252.599 253.097 259.824 252.581 264.771 251.935L264.902 246.774C259.173 247.742 252.208 248.323 247.13 248.323C240.426 248.323 235.348 247.548 235.348 242.516C235.348 238.258 239.579 234.839 245.633 231.677C245.633 235.097 245.568 239.29 245.438 241.742H250.45C250.385 238.581 250.32 233.097 250.255 229.355C255.202 227.032 259.824 225.161 263.47 223.806C265.227 223.097 267.571 222.194 269.263 221.742L267.115 216.903C265.292 217.871 263.73 218.581 261.777 219.419C258.392 220.968 254.421 222.516 249.995 224.645C248.953 220.903 245.503 218.839 241.272 218.839C238.473 218.839 234.697 219.677 232.224 221.226C234.437 218.323 236.585 214.645 238.082 211.226C245.178 210.968 253.249 210.452 259.694 209.419L259.759 204.645C253.64 205.742 246.545 206.323 239.905 206.645C240.881 203.613 241.402 201.097 241.793 199.161Z" stroke="#FFE600" stroke-width="16" mask="url(#path-1-outside-1)"/>
<path d="M302.462 204.581C302.657 205.355 303.113 207.871 303.829 211.355C297.71 212.323 292.047 213.161 289.508 213.419C287.425 213.677 285.732 213.806 284.105 213.871L285.212 219.677C287.164 219.226 288.662 218.903 290.484 218.581C292.958 218.129 298.621 217.226 304.805 216.258C305.587 220.258 306.498 224.839 307.409 229.226C299.988 230.387 292.893 231.484 289.638 231.935C287.946 232.194 285.407 232.452 283.91 232.516L285.081 238.129C286.448 237.742 288.271 237.419 290.81 236.968C293.999 236.387 300.965 235.226 308.321 234C309.557 240.387 310.599 245.613 310.859 247.032C311.315 248.968 311.51 250.903 311.836 253.097L317.759 252C317.174 250.194 316.653 248 316.197 246.129C315.872 244.645 314.83 239.484 313.528 233.161C319.908 232.194 325.962 231.226 329.542 230.645C331.95 230.258 334.033 229.935 335.4 229.806L334.359 224.387C332.927 224.774 331.104 225.161 328.565 225.613C325.311 226.194 319.126 227.29 312.552 228.323C311.706 224 310.794 219.419 309.948 215.419C316.197 214.452 322.121 213.484 325.115 213.032C326.808 212.774 328.826 212.516 329.802 212.387L328.696 206.968C327.589 207.29 325.962 207.742 324.074 208.065C321.34 208.581 315.351 209.548 309.037 210.581C308.255 206.968 307.8 204.323 307.67 203.613C307.474 202.194 307.149 200.387 307.084 199.161L301.225 200.194C301.681 201.484 302.136 202.903 302.462 204.581Z" stroke="#FFE600" stroke-width="16" mask="url(#path-1-outside-1)"/>
<path d="M367.102 210.71L361.504 212.065C362.09 213.032 362.61 214.323 363.066 215.935C363.457 217.161 364.238 219.935 365.214 223.355C361.243 224.065 358.184 224.645 357.273 224.774C355.32 225.097 353.692 225.355 351.87 225.484L353.172 230.387C354.929 230 360.267 228.968 366.386 227.742C368.925 236.968 372.049 248.387 372.896 251.29C373.351 252.903 373.677 254.581 373.872 256L379.405 254.581C379.015 253.419 378.364 251.419 377.973 250.194C377.127 247.355 373.937 236 371.333 226.71C380.382 224.903 389.56 223.097 391.057 222.839C388.844 226.71 383.962 232.645 379.861 236.129L384.483 238.387C388.909 234.065 395.614 225.032 398.348 219.548L395.093 217.29C394.442 217.613 393.401 217.871 392.62 218.065C390.406 218.581 379.34 220.71 370.162 222.452C369.185 219.032 368.404 216.258 368.013 214.839C367.623 213.226 367.297 211.806 367.102 210.71Z" stroke="#FFE600" stroke-width="16" mask="url(#path-1-outside-1)"/>
<path d="M459.538 203.871C459.538 201.484 461.491 199.548 463.834 199.548C466.243 199.548 468.196 201.484 468.196 203.871C468.196 206.194 466.243 208.129 463.834 208.129C461.491 208.129 459.538 206.194 459.538 203.871ZM456.544 203.871C456.544 204.581 456.674 205.29 456.869 205.935C456.088 206 455.372 206 454.786 206H422.108C419.96 206 417.421 205.806 415.598 205.548V211.29C417.291 211.226 419.504 211.097 422.108 211.097H455.372C454.526 217.29 451.466 226.258 446.844 232.129C441.441 239.032 434.086 244.516 421.457 247.613L425.884 252.452C437.861 248.774 445.608 242.774 451.531 235.226C456.674 228.581 459.864 218.194 461.231 211.419C461.296 211.161 461.361 210.903 461.361 210.71C462.142 210.968 462.988 211.097 463.834 211.097C467.87 211.097 471.19 207.871 471.19 203.871C471.19 199.871 467.87 196.581 463.834 196.581C459.798 196.581 456.544 199.871 456.544 203.871Z" stroke="#FFE600" stroke-width="16" mask="url(#path-1-outside-1)"/>
<path d="M483.038 205.355L484.34 210.129C489.352 210.065 496.708 209.871 503.283 209.226V220.968H483.689C481.736 220.968 479.457 220.839 477.96 220.71V226.065C479.523 225.935 481.736 225.806 483.819 225.806H503.152C502.371 237.355 496.968 244.581 486.683 249.29L491.826 252.839C503.022 246.387 507.774 237.871 508.49 225.806H526.652C528.279 225.806 530.232 225.935 531.664 226.065V220.71C530.297 220.839 527.954 220.968 526.522 220.968H508.555V208.581C513.242 207.871 518.255 206.903 521.509 206.065C522.421 205.806 523.723 205.484 525.155 205.097L521.705 200.645C518.515 202 510.834 203.548 504.91 204.387C497.88 205.29 487.985 205.548 483.038 205.355Z" stroke="#FFE600" stroke-width="16" mask="url(#path-1-outside-1)"/>
<path d="M561.754 210.71L556.156 212.065C556.741 213.032 557.262 214.323 557.718 215.935C558.108 217.161 558.89 219.935 559.866 223.355C555.895 224.065 552.836 224.645 551.924 224.774C549.971 225.097 548.344 225.355 546.521 225.484L547.823 230.387C549.581 230 554.919 228.968 561.038 227.742C563.576 236.968 566.701 248.387 567.547 251.29C568.003 252.903 568.328 254.581 568.524 256L574.057 254.581C573.666 253.419 573.015 251.419 572.625 250.194C571.779 247.355 568.589 236 565.985 226.71C575.033 224.903 584.212 223.097 585.709 222.839C583.496 226.71 578.614 232.645 574.513 236.129L579.134 238.387C583.561 234.065 590.266 225.032 593 219.548L589.745 217.29C589.094 217.613 588.053 217.871 587.271 218.065C585.058 218.581 573.992 220.71 564.813 222.452C563.837 219.032 563.056 216.258 562.665 214.839C562.275 213.226 561.949 211.806 561.754 210.71Z" stroke="#FFE600" stroke-width="16" mask="url(#path-1-outside-1)"/>
<path d="M609.729 238.258L608.167 218.258V205.161H613.896V218.258L612.333 238.258H609.729ZM611.031 250.968C609.643 250.968 608.623 250.624 607.972 249.935C607.364 249.247 607.061 248.344 607.061 247.226V246.387C607.061 245.269 607.364 244.366 607.972 243.677C608.623 242.989 609.643 242.645 611.031 242.645C612.42 242.645 613.418 242.989 614.026 243.677C614.677 244.366 615.002 245.269 615.002 246.387V247.226C615.002 248.344 614.677 249.247 614.026 249.935C613.418 250.624 612.42 250.968 611.031 250.968Z" stroke="#FFE600" stroke-width="16" mask="url(#path-1-outside-1)"/>
<path d="M628.228 238.258L626.666 218.258V205.161H632.394V218.258L630.832 238.258H628.228ZM629.53 250.968C628.142 250.968 627.122 250.624 626.471 249.935C625.863 249.247 625.559 248.344 625.559 247.226V246.387C625.559 245.269 625.863 244.366 626.471 243.677C627.122 242.989 628.142 242.645 629.53 242.645C630.919 242.645 631.917 242.989 632.525 243.677C633.176 244.366 633.501 245.269 633.501 246.387V247.226C633.501 248.344 633.176 249.247 632.525 249.935C631.917 250.624 630.919 250.968 629.53 250.968Z" stroke="#FFE600" stroke-width="16" mask="url(#path-1-outside-1)"/>
<path d="M646.727 238.258L645.165 218.258V205.161H650.893V218.258L649.331 238.258H646.727ZM648.029 250.968C646.64 250.968 645.621 250.624 644.97 249.935C644.362 249.247 644.058 248.344 644.058 247.226V246.387C644.058 245.269 644.362 244.366 644.97 243.677C645.621 242.989 646.64 242.645 648.029 242.645C649.418 242.645 650.416 242.989 651.024 243.677C651.675 244.366 652 245.269 652 246.387V247.226C652 248.344 651.675 249.247 651.024 249.935C650.416 250.624 649.418 250.968 648.029 250.968Z" stroke="#FFE600" stroke-width="16" mask="url(#path-1-outside-1)"/>
<mask id="path-2-outside-2" maskUnits="userSpaceOnUse" x="14" y="10" width="650" height="114" fill="black">
<rect fill="white" x="14" y="10" width="650" height="114"/>
<path d="M66.1828 45.0617H22V18H32.6559V35.6032H77.4884V45.3244L51.3686 115.212H40.063L66.1828 45.0617Z"/>
<path d="M85.6275 105.753H109.278C115.776 105.753 121.06 103.564 125.132 99.185C129.291 94.8061 131.37 88.6756 131.37 80.7936V70.0215C131.37 62.1394 129.291 56.0089 125.132 51.63C121.06 47.2511 115.776 45.0617 109.278 45.0617H85.6275V35.6032H110.318C115.256 35.6032 119.674 36.4352 123.573 38.0992C127.558 39.7632 130.937 42.2592 133.709 45.5871C136.568 48.9151 138.734 53.0751 140.206 58.067C141.766 62.9714 142.545 68.7516 142.545 75.4075C142.545 82.0635 141.766 87.8874 140.206 92.8794C138.734 97.7837 136.568 101.9 133.709 105.228C130.937 108.556 127.558 111.052 123.573 112.716C119.674 114.38 115.256 115.212 110.318 115.212H85.6275V105.753Z"/>
<path d="M159.601 35.6032H170.257V79.4799H159.601V35.6032Z"/>
<path d="M223.177 45.0617H184.322V35.6032H244.879V45.0617H233.833V115.212H223.177V45.0617Z"/>
<path d="M256.875 105.753H269.351L267.141 83.0268C266.968 81.2753 266.838 79.5675 266.752 77.9035C266.665 76.2395 266.622 74.6631 266.622 73.1743C266.622 68.1823 267.141 63.8472 268.181 60.1689C269.307 56.4906 271.127 53.1189 273.639 50.0536L277.278 45.7185V45.0617H257.915V35.6032H299.239C307.642 35.6032 313.967 37.8365 318.212 42.303C322.543 46.7694 324.709 53.2502 324.709 61.7453V115.212H314.053V61.3512C314.053 55.4835 312.624 51.3235 309.765 48.8713C306.906 46.3315 303.181 45.0617 298.589 45.0617H282.476L281.306 47.4263C279.66 50.6667 278.534 53.9508 277.927 57.2788C277.321 60.6068 277.018 64.2413 277.018 68.1823C277.018 70.4593 277.104 72.8677 277.278 75.4075C277.451 77.9473 277.667 80.6622 277.927 83.5523L280.916 115.212H256.875V105.753Z"/>
<path d="M408.964 45.0617H370.109V35.6032H430.666V45.0617H419.62V115.212H408.964V45.0617Z"/>
<path d="M468.393 97.0831H467.743C466.617 99.8856 465.014 102.425 462.935 104.702C460.942 106.979 458.646 108.994 456.047 110.745C453.535 112.409 450.893 113.723 448.12 114.686C445.435 115.562 442.793 116 440.194 116V105.753C444.612 105.753 448.51 105.184 451.889 104.046C455.268 102.819 458.083 101.243 460.336 99.3164C462.675 97.3896 464.407 95.244 465.534 92.8794C466.66 90.5148 467.093 88.1501 466.833 85.7855L462.805 45.0617H444.742V35.6032H456.827C462.198 35.6032 466.27 36.9607 469.042 39.6756C471.815 42.3905 473.461 46.2878 473.98 51.3673L480.348 115.212H470.212L468.393 97.0831Z"/>
<path d="M536.869 45.0617H492.686V18H503.342V35.6032H548.174V45.3244L522.055 115.212H510.749L536.869 45.0617Z"/>
<path d="M561.886 35.6032H572.542V79.4799H561.886V35.6032Z"/>
<path d="M594.404 35.6032H630.53C638.933 35.6032 645.257 37.8365 649.502 42.303C653.834 46.7694 656 53.2502 656 61.7453V115.212H594.404V35.6032ZM645.344 105.753V61.3512C645.344 55.4835 643.915 51.3235 641.056 48.8713C638.197 46.3315 634.472 45.0617 629.88 45.0617H605.06V105.753H645.344Z"/>
</mask>
<path d="M66.1828 45.0617H22V18H32.6559V35.6032H77.4884V45.3244L51.3686 115.212H40.063L66.1828 45.0617Z" fill="#F9653F"/>
<path d="M85.6275 105.753H109.278C115.776 105.753 121.06 103.564 125.132 99.185C129.291 94.8061 131.37 88.6756 131.37 80.7936V70.0215C131.37 62.1394 129.291 56.0089 125.132 51.63C121.06 47.2511 115.776 45.0617 109.278 45.0617H85.6275V35.6032H110.318C115.256 35.6032 119.674 36.4352 123.573 38.0992C127.558 39.7632 130.937 42.2592 133.709 45.5871C136.568 48.9151 138.734 53.0751 140.206 58.067C141.766 62.9714 142.545 68.7516 142.545 75.4075C142.545 82.0635 141.766 87.8874 140.206 92.8794C138.734 97.7837 136.568 101.9 133.709 105.228C130.937 108.556 127.558 111.052 123.573 112.716C119.674 114.38 115.256 115.212 110.318 115.212H85.6275V105.753Z" fill="#F9653F"/>
<path d="M159.601 35.6032H170.257V79.4799H159.601V35.6032Z" fill="#F9653F"/>
<path d="M223.177 45.0617H184.322V35.6032H244.879V45.0617H233.833V115.212H223.177V45.0617Z" fill="#F9653F"/>
<path d="M256.875 105.753H269.351L267.141 83.0268C266.968 81.2753 266.838 79.5675 266.752 77.9035C266.665 76.2395 266.622 74.6631 266.622 73.1743C266.622 68.1823 267.141 63.8472 268.181 60.1689C269.307 56.4906 271.127 53.1189 273.639 50.0536L277.278 45.7185V45.0617H257.915V35.6032H299.239C307.642 35.6032 313.967 37.8365 318.212 42.303C322.543 46.7694 324.709 53.2502 324.709 61.7453V115.212H314.053V61.3512C314.053 55.4835 312.624 51.3235 309.765 48.8713C306.906 46.3315 303.181 45.0617 298.589 45.0617H282.476L281.306 47.4263C279.66 50.6667 278.534 53.9508 277.927 57.2788C277.321 60.6068 277.018 64.2413 277.018 68.1823C277.018 70.4593 277.104 72.8677 277.278 75.4075C277.451 77.9473 277.667 80.6622 277.927 83.5523L280.916 115.212H256.875V105.753Z" fill="#F9653F"/>
<path d="M408.964 45.0617H370.109V35.6032H430.666V45.0617H419.62V115.212H408.964V45.0617Z" fill="#F9653F"/>
<path d="M468.393 97.0831H467.743C466.617 99.8856 465.014 102.425 462.935 104.702C460.942 106.979 458.646 108.994 456.047 110.745C453.535 112.409 450.893 113.723 448.12 114.686C445.435 115.562 442.793 116 440.194 116V105.753C444.612 105.753 448.51 105.184 451.889 104.046C455.268 102.819 458.083 101.243 460.336 99.3164C462.675 97.3896 464.407 95.244 465.534 92.8794C466.66 90.5148 467.093 88.1501 466.833 85.7855L462.805 45.0617H444.742V35.6032H456.827C462.198 35.6032 466.27 36.9607 469.042 39.6756C471.815 42.3905 473.461 46.2878 473.98 51.3673L480.348 115.212H470.212L468.393 97.0831Z" fill="#F9653F"/>
<path d="M536.869 45.0617H492.686V18H503.342V35.6032H548.174V45.3244L522.055 115.212H510.749L536.869 45.0617Z" fill="#F9653F"/>
<path d="M561.886 35.6032H572.542V79.4799H561.886V35.6032Z" fill="#F9653F"/>
<path d="M594.404 35.6032H630.53C638.933 35.6032 645.257 37.8365 649.502 42.303C653.834 46.7694 656 53.2502 656 61.7453V115.212H594.404V35.6032ZM645.344 105.753V61.3512C645.344 55.4835 643.915 51.3235 641.056 48.8713C638.197 46.3315 634.472 45.0617 629.88 45.0617H605.06V105.753H645.344Z" fill="#F9653F"/>
<path d="M66.1828 45.0617H22V18H32.6559V35.6032H77.4884V45.3244L51.3686 115.212H40.063L66.1828 45.0617Z" stroke="#FFE600" stroke-width="16" mask="url(#path-2-outside-2)"/>
<path d="M85.6275 105.753H109.278C115.776 105.753 121.06 103.564 125.132 99.185C129.291 94.8061 131.37 88.6756 131.37 80.7936V70.0215C131.37 62.1394 129.291 56.0089 125.132 51.63C121.06 47.2511 115.776 45.0617 109.278 45.0617H85.6275V35.6032H110.318C115.256 35.6032 119.674 36.4352 123.573 38.0992C127.558 39.7632 130.937 42.2592 133.709 45.5871C136.568 48.9151 138.734 53.0751 140.206 58.067C141.766 62.9714 142.545 68.7516 142.545 75.4075C142.545 82.0635 141.766 87.8874 140.206 92.8794C138.734 97.7837 136.568 101.9 133.709 105.228C130.937 108.556 127.558 111.052 123.573 112.716C119.674 114.38 115.256 115.212 110.318 115.212H85.6275V105.753Z" stroke="#FFE600" stroke-width="16" mask="url(#path-2-outside-2)"/>
<path d="M159.601 35.6032H170.257V79.4799H159.601V35.6032Z" stroke="#FFE600" stroke-width="16" mask="url(#path-2-outside-2)"/>
<path d="M223.177 45.0617H184.322V35.6032H244.879V45.0617H233.833V115.212H223.177V45.0617Z" stroke="#FFE600" stroke-width="16" mask="url(#path-2-outside-2)"/>
<path d="M256.875 105.753H269.351L267.141 83.0268C266.968 81.2753 266.838 79.5675 266.752 77.9035C266.665 76.2395 266.622 74.6631 266.622 73.1743C266.622 68.1823 267.141 63.8472 268.181 60.1689C269.307 56.4906 271.127 53.1189 273.639 50.0536L277.278 45.7185V45.0617H257.915V35.6032H299.239C307.642 35.6032 313.967 37.8365 318.212 42.303C322.543 46.7694 324.709 53.2502 324.709 61.7453V115.212H314.053V61.3512C314.053 55.4835 312.624 51.3235 309.765 48.8713C306.906 46.3315 303.181 45.0617 298.589 45.0617H282.476L281.306 47.4263C279.66 50.6667 278.534 53.9508 277.927 57.2788C277.321 60.6068 277.018 64.2413 277.018 68.1823C277.018 70.4593 277.104 72.8677 277.278 75.4075C277.451 77.9473 277.667 80.6622 277.927 83.5523L280.916 115.212H256.875V105.753Z" stroke="#FFE600" stroke-width="16" mask="url(#path-2-outside-2)"/>
<path d="M408.964 45.0617H370.109V35.6032H430.666V45.0617H419.62V115.212H408.964V45.0617Z" stroke="#FFE600" stroke-width="16" mask="url(#path-2-outside-2)"/>
<path d="M468.393 97.0831H467.743C466.617 99.8856 465.014 102.425 462.935 104.702C460.942 106.979 458.646 108.994 456.047 110.745C453.535 112.409 450.893 113.723 448.12 114.686C445.435 115.562 442.793 116 440.194 116V105.753C444.612 105.753 448.51 105.184 451.889 104.046C455.268 102.819 458.083 101.243 460.336 99.3164C462.675 97.3896 464.407 95.244 465.534 92.8794C466.66 90.5148 467.093 88.1501 466.833 85.7855L462.805 45.0617H444.742V35.6032H456.827C462.198 35.6032 466.27 36.9607 469.042 39.6756C471.815 42.3905 473.461 46.2878 473.98 51.3673L480.348 115.212H470.212L468.393 97.0831Z" stroke="#FFE600" stroke-width="16" mask="url(#path-2-outside-2)"/>
<path d="M536.869 45.0617H492.686V18H503.342V35.6032H548.174V45.3244L522.055 115.212H510.749L536.869 45.0617Z" stroke="#FFE600" stroke-width="16" mask="url(#path-2-outside-2)"/>
<path d="M561.886 35.6032H572.542V79.4799H561.886V35.6032Z" stroke="#FFE600" stroke-width="16" mask="url(#path-2-outside-2)"/>
<path d="M594.404 35.6032H630.53C638.933 35.6032 645.257 37.8365 649.502 42.303C653.834 46.7694 656 53.2502 656 61.7453V115.212H594.404V35.6032ZM645.344 105.753V61.3512C645.344 55.4835 643.915 51.3235 641.056 48.8713C638.197 46.3315 634.472 45.0617 629.88 45.0617H605.06V105.753H645.344Z" stroke="#FFE600" stroke-width="16" mask="url(#path-2-outside-2)"/>
<path d="M2 6.5L670.5 128.5" stroke="black" stroke-width="13"/>
<path d="M2 128.5L670.5 6.5" stroke="black" stroke-width="13"/>
</svg>
